<svg width="264" height="28" viewBox="0 0 264 28" fill="none" xmlns="http://www.w3.org/2000/svg">
<path d="M3.64021 13.88C3.64021 15.88 3.82688 17.5733 4.20021 18.96C4.60021 20.3466 5.22688 21.48 6.08022 22.36C6.93355 23.2133 8.02688 23.84 9.36022 24.24C10.7202 24.6133 12.3602 24.8 14.2802 24.8C17.0535 24.8 19.7202 24.6266 22.2802 24.28C24.8669 23.9333 27.1602 23.48 29.1602 22.92L30.1202 26.04C27.8002 26.5733 25.2535 27.0133 22.4802 27.36C19.7335 27.68 16.8402 27.8533 13.8002 27.88C10.9202 27.9066 8.57355 27.5733 6.76022 26.88C4.97355 26.16 3.57355 25.1733 2.56022 23.92C1.57355 22.6666 0.893548 21.1866 0.520215 19.48C0.173548 17.7466 0.000214994 15.88 0.000214994 13.88C0.000214994 11.88 0.173548 10.0266 0.520215 8.31998C0.893548 6.61331 1.58688 5.14665 2.60022 3.91998C3.64022 2.69331 5.06688 1.73331 6.88022 1.03998C8.69355 0.346646 11.0669 -2.09808e-05 14.0002 -2.09808e-05C15.3869 -2.09808e-05 16.7869 0.0533125 18.2002 0.159979C19.6402 0.23998 21.0402 0.35998 22.4002 0.519979C23.7602 0.679979 25.0669 0.866646 26.3202 1.07998C27.5735 1.26665 28.7202 1.46665 29.7602 1.67998L28.7602 4.75998C27.7469 4.54665 26.6269 4.34665 25.4002 4.15998C24.2002 3.94665 22.9602 3.75998 21.6802 3.59998C20.4002 3.43998 19.1202 3.31998 17.8402 3.23998C16.5869 3.13331 15.4002 3.07998 14.2802 3.07998C12.2535 3.07998 10.5602 3.25331 9.20021 3.59998C7.84022 3.91998 6.74688 4.49331 5.92022 5.31998C5.09355 6.11998 4.50688 7.22665 4.16022 8.63998C3.81355 10.0266 3.64021 11.7733 3.64021 13.88ZM50.2665 5.47998C52.2931 5.47998 54.1331 5.70665 55.7865 6.15998C57.4398 6.61331 58.8531 7.27998 60.0265 8.15998C61.2265 9.03998 62.1465 10.1333 62.7865 11.44C63.4531 12.7466 63.7865 14.2533 63.7865 15.96V17.2C63.7865 18.9066 63.4531 20.4133 62.7865 21.72C62.1465 23.0266 61.2265 24.12 60.0265 25C58.8531 25.88 57.4398 26.5466 55.7865 27C54.1331 27.4533 52.2931 27.68 50.2665 27.68H47.1465C45.1198 27.68 43.2798 27.4533 41.6265 27C39.9731 26.5466 38.5465 25.88 37.3465 25C36.1731 24.12 35.2531 23.0266 34.5865 21.72C33.9465 20.4133 33.6265 18.9066 33.6265 17.2V15.96C33.6265 14.2533 33.9465 12.7466 34.5865 11.44C35.2531 10.1333 36.1731 9.03998 37.3465 8.15998C38.5465 7.27998 39.9731 6.61331 41.6265 6.15998C43.2798 5.70665 45.1198 5.47998 47.1465 5.47998H50.2665ZM60.2265 15.96C60.2265 13.5866 59.4131 11.76 57.7865 10.48C56.1865 9.17331 53.7198 8.51998 50.3865 8.51998H47.0265C43.6931 8.51998 41.2131 9.17331 39.5865 10.48C37.9865 11.76 37.1865 13.5866 37.1865 15.96V17.2C37.1865 19.5733 37.9865 21.4133 39.5865 22.72C41.2131 24 43.6931 24.64 47.0265 24.64H50.3865C53.7198 24.64 56.1865 24 57.7865 22.72C59.4131 21.4133 60.2265 19.5733 60.2265 17.2V15.96ZM69.4052 4.19998H74.2852V8.99998H69.4052V4.19998ZM69.4052 18.6H74.2852V23.4H69.4052V18.6ZM84.8774 4.43998V27.48H81.2374V0.239978H85.6774L106.837 23.28V0.239978H110.477V27.48H106.037L84.8774 4.43998ZM116.853 11.92H138.013V15.12H116.853V11.92ZM148.001 5.67998V10.04C148.561 9.37331 149.227 8.75998 150.001 8.19998C150.801 7.63998 151.654 7.15998 152.561 6.75998C153.494 6.35998 154.467 6.05331 155.481 5.83998C156.521 5.59998 157.561 5.47998 158.601 5.47998H159.921C161.867 5.47998 163.641 5.70665 165.241 6.15998C166.867 6.58665 168.254 7.22665 169.401 8.07998C170.574 8.93331 171.481 9.99998 172.121 11.28C172.787 12.56 173.121 14.0533 173.121 15.76V27.48H169.521V16C169.521 14.8266 169.334 13.7733 168.961 12.84C168.614 11.9066 168.054 11.12 167.281 10.48C166.507 9.83998 165.507 9.35998 164.281 9.03998C163.081 8.69331 161.627 8.51998 159.921 8.51998H158.601C156.334 8.51998 154.294 9.03998 152.481 10.08C150.667 11.12 149.174 12.4533 148.001 14.08V27.48H144.441V5.67998H148.001ZM191.236 8.51998C187.903 8.51998 185.489 9.13331 183.996 10.36C182.529 11.5866 181.796 13.3866 181.796 15.76V17.4C181.796 19.7733 182.529 21.5733 183.996 22.8C185.489 24.0266 187.903 24.64 191.236 24.64H193.756C194.743 24.64 195.783 24.6 196.876 24.52C197.969 24.44 199.063 24.32 200.156 24.16C201.249 24 202.316 23.8133 203.356 23.6C204.396 23.36 205.356 23.0933 206.236 22.8L207.196 25.8C205.276 26.3866 203.156 26.8533 200.836 27.2C198.516 27.52 196.156 27.68 193.756 27.68H191.356C189.329 27.68 187.503 27.4666 185.876 27.04C184.276 26.6133 182.903 25.9733 181.756 25.12C180.636 24.24 179.769 23.16 179.156 21.88C178.543 20.6 178.236 19.1066 178.236 17.4V15.76C178.236 14.0533 178.543 12.56 179.156 11.28C179.769 9.99998 180.636 8.93331 181.756 8.07998C182.903 7.22665 184.276 6.58665 185.876 6.15998C187.503 5.70665 189.329 5.47998 191.356 5.47998H194.596C196.623 5.47998 198.396 5.65331 199.916 5.99998C201.463 6.34665 202.756 6.90665 203.796 7.67998C204.836 8.42665 205.609 9.39998 206.116 10.6C206.649 11.7733 206.916 13.2133 206.916 14.92V18.32H184.636L183.596 15.28H203.356V13.96C203.356 12.12 202.583 10.76 201.036 9.87998C199.489 8.97331 197.436 8.51998 194.876 8.51998H191.236ZM239.413 5.47998L226.933 16.32L239.773 27.48H234.933L224.493 18.44L214.093 27.48H209.253L222.093 16.32L209.613 5.47998H214.453L224.493 14.24L234.573 5.47998H239.413ZM247.859 10.4H241.859V7.35998H247.859V0.399979H251.419V7.35998H262.779V10.4H251.419V21.92C251.419 22.9066 251.819 23.6133 252.619 24.04C253.446 24.44 254.539 24.64 255.899 24.64C257.339 24.64 258.686 24.5466 259.939 24.36C261.193 24.1466 262.486 23.8533 263.819 23.48L263.019 26.64C261.686 26.96 260.379 27.2 259.099 27.36C257.846 27.52 256.379 27.6 254.699 27.6C253.339 27.6 252.219 27.4666 251.339 27.2C250.459 26.9333 249.753 26.5333 249.219 26C248.713 25.4666 248.353 24.8 248.139 24C247.953 23.2 247.859 22.2533 247.859 21.16V10.4Z" fill="url(#paint0_linear_2742_13329)"/>
<defs>
<linearGradient id="paint0_linear_2742_13329" x1="-2.27979" y1="15.48" x2="264.72" y2="15.48" gradientUnits="userSpaceOnUse">
<stop stop-color="#F2EFFF"/>
<stop offset="1" stop-color="#9576FF"/>
</linearGradient>
</defs>
</svg>
