<svg width="14" height="15" viewBox="0 0 14 15" fill="none" xmlns="http://www.w3.org/2000/svg">
<path d="M12.75 14.75V13.1944C12.75 12.3693 12.4129 11.578 11.8127 10.9946C11.2126 10.4111 10.3987 10.0833 9.55 10.0833H3.95C3.10131 10.0833 2.28737 10.4111 1.68726 10.9946C1.08714 11.578 0.75 12.3693 0.75 13.1944V14.75" fill="white"/>
<path d="M6.75 6.97222C8.51731 6.97222 9.95 5.57933 9.95 3.86111C9.95 2.14289 8.51731 0.75 6.75 0.75C4.98269 0.75 3.55 2.14289 3.55 3.86111C3.55 5.57933 4.98269 6.97222 6.75 6.97222Z" fill="white"/>
<path d="M12.75 14.75V13.1944C12.75 12.3693 12.4129 11.578 11.8127 10.9946C11.2126 10.4111 10.3987 10.0833 9.55 10.0833H3.95C3.10131 10.0833 2.28737 10.4111 1.68726 10.9946C1.08714 11.578 0.75 12.3693 0.75 13.1944V14.75M9.95 3.86111C9.95 5.57933 8.51731 6.97222 6.75 6.97222C4.98269 6.97222 3.55 5.57933 3.55 3.86111C3.55 2.14289 4.98269 0.75 6.75 0.75C8.51731 0.75 9.95 2.14289 9.95 3.86111Z" stroke="#FEFEFE" stroke-width="1.5" stroke-linejoin="round"/>
</svg>
