<svg width="92" height="90" viewBox="0 0 92 90" fill="none" xmlns="http://www.w3.org/2000/svg">
<g filter="url(#filter0_d_2302_15450)">
<path d="M33.8254 53.7125C33.9307 52.9332 34.1774 51.8191 34.5657 50.3702C35.5668 50.2657 36.3861 50.2989 37.0236 50.4697C37.4293 50.5785 37.8916 50.7851 38.4104 51.0898C38.7136 51.8129 38.6697 52.9814 38.2787 54.5951C38.2076 54.7832 38.0265 54.8796 37.7353 54.8844C37.439 54.9085 37.0222 54.8796 36.4851 54.7978C35.4264 54.5763 34.5398 54.2145 33.8254 53.7125ZM35.7082 32.1967C35.987 31.7744 36.5664 31.5052 37.4465 31.389C38.3459 31.278 39.2896 31.2721 40.2776 31.3712C41.2901 31.4561 42.0572 31.5685 42.5788 31.7082C44.1242 32.1223 45.3221 32.8678 46.1724 33.9445C47.0279 35.002 47.2834 36.2507 46.939 37.6906C46.7019 38.8073 46.2687 39.6126 45.6394 40.1066C45.0294 40.6057 44.1271 41.0368 42.9324 41.4C42.0792 41.6476 41.4224 42.0514 40.9618 42.6112C40.5205 43.1763 40.1885 43.8741 39.966 44.7048L39.381 47.4676C39.3278 47.7432 39.0242 47.9103 38.4702 47.9689C37.9213 48.0082 37.2431 47.9507 36.4355 47.7964C35.6034 47.6563 35.2276 47.3589 35.308 46.9042L35.9882 43.6701C36.2264 42.7814 36.4262 42.1517 36.5876 41.7808C36.7491 41.41 37.0213 41.0895 37.4043 40.8194C37.8066 40.5545 38.4194 40.315 39.2429 40.1008C40.154 39.8687 40.9231 39.4329 41.5499 38.7934C42.1961 38.159 42.5891 37.581 42.7289 37.0594C42.9774 36.1321 43.0383 35.2478 42.9118 34.4064C42.8046 33.5701 42.4322 33.0666 41.7947 32.8958C41.447 32.8026 41.1442 32.7732 40.8865 32.8077C40.6533 32.8281 40.3318 32.9075 39.9219 33.0462C39.3896 33.2555 38.7654 33.3057 38.0492 33.1966L36.7162 32.8394C35.9242 32.6272 35.5882 32.413 35.7082 32.1967ZM46.871 57.208C46.9763 56.4287 47.2231 55.3146 47.6113 53.8658C48.6125 53.7613 49.4318 53.7945 50.0693 53.9653C50.475 54.074 50.9372 54.2807 51.4561 54.5854C51.7592 55.3085 51.7153 56.4769 51.3243 58.0907C51.2532 58.2787 51.0721 58.3751 50.781 58.3799C50.4846 58.4041 50.0679 58.3752 49.5308 58.2934C48.472 58.0718 47.5855 57.7101 46.871 57.208ZM48.7539 35.6922C49.0327 35.27 49.6121 35.0008 50.4922 34.8846C51.3915 34.7736 52.3352 34.7676 53.3233 34.8667C54.3358 34.9517 55.1028 35.064 55.6244 35.2038C57.1699 35.6179 58.3678 36.3634 59.2181 37.4401C60.0735 38.4976 60.3291 39.7462 59.9846 41.1862C59.7475 42.3028 59.3144 43.1082 58.6851 43.6021C58.0751 44.1013 57.1728 44.5324 55.9781 44.8956C55.1249 45.1432 54.468 45.5469 54.0074 46.1068C53.5661 46.6719 53.2342 47.3697 53.0116 48.2004L52.4266 50.9632C52.3735 51.2388 52.0699 51.4059 51.5158 51.4645C50.967 51.5038 50.2887 51.4463 49.4812 51.292C48.6491 51.1519 48.2732 50.8545 48.3537 50.3998L49.0339 47.1656C49.272 46.277 49.4718 45.6472 49.6333 45.2764C49.7948 44.9056 50.067 44.5851 50.45 44.315C50.8522 44.0501 51.4651 43.8106 52.2886 43.5964C53.1997 43.3643 53.9687 42.9285 54.5956 42.289C55.2418 41.6546 55.6348 41.0766 55.7745 40.555C56.023 39.6277 56.084 38.7434 55.9574 37.9019C55.8502 37.0657 55.4779 36.5622 54.8403 36.3913C54.4926 36.2982 54.1899 36.2688 53.9322 36.3033C53.699 36.3236 53.3775 36.4031 52.9676 36.5418C52.4353 36.7511 51.811 36.8013 51.0949 36.6922L49.7619 36.335C48.9698 36.1228 48.6338 35.9085 48.7539 35.6922Z" fill="#CBBBFF"/>
</g>
<defs>
<filter id="filter0_d_2302_15450" x="0" y="0" width="91.2749" height="89.8711" filterUnits="userSpaceOnUse" color-interpolation-filters="sRGB">
<feFlood flood-opacity="0" result="BackgroundImageFix"/>
<feColorMatrix in="SourceAlpha" type="matrix" values="0 0 0 0 0 0 0 0 0 0 0 0 0 0 0 0 0 0 127 0" result="hardAlpha"/>
<feOffset/>
<feGaussianBlur stdDeviation="15"/>
<feComposite in2="hardAlpha" operator="out"/>
<feColorMatrix type="matrix" values="0 0 0 0 0.498039 0 0 0 0 0.352941 0 0 0 0 1 0 0 0 1 0"/>
<feBlend mode="normal" in2="BackgroundImageFix" result="effect1_dropShadow_2302_15450"/>
<feBlend mode="normal" in="SourceGraphic" in2="effect1_dropShadow_2302_15450" result="shape"/>
</filter>
</defs>
</svg>
