<svg width="24" height="24" viewBox="0 0 24 24" fill="none" xmlns="http://www.w3.org/2000/svg">
<path d="M12.5 3C17.7481 3 22 6.25275 22 10.2635C22 14.2743 17.7481 17.5271 12.5 17.5271C11.9227 17.5271 11.3587 17.4887 10.8111 17.4119C10.2635 17.7861 7.09688 19.9418 6.7967 19.9834C6.7967 19.9834 6.67465 20.0282 6.5691 19.9706C6.46354 19.913 6.48333 19.7563 6.48333 19.7563C6.51632 19.5452 7.30799 16.9034 7.45312 16.414C4.77795 15.1315 3 12.8542 3 10.2603C3 6.24956 7.25191 3 12.5 3ZM5.8434 8.09182C5.54653 8.09182 5.30573 8.32531 5.30573 8.61316C5.30573 8.90102 5.54653 9.1345 5.8434 9.1345H6.69774V12.2913C6.69774 12.5728 6.94514 12.7998 7.24531 12.7998C7.54549 12.7998 7.79288 12.5728 7.79288 12.2913V9.1345H8.64722C8.9441 9.1345 9.1849 8.90102 9.1849 8.61316C9.1849 8.32531 8.9441 8.09182 8.64722 8.09182H5.8401H5.8434ZM10.4878 8.09182C10.1316 8.09822 9.85122 8.36049 9.75885 8.61636L8.44931 11.9619C8.28438 12.464 8.42951 12.6495 8.57795 12.7167C8.68351 12.7647 8.80556 12.7902 8.9276 12.7902C9.15521 12.7902 9.33003 12.7007 9.38281 12.5568L9.6533 11.8659H11.3257L11.5962 12.5536C11.649 12.6975 11.8238 12.787 12.0514 12.787C12.1734 12.787 12.2922 12.7615 12.401 12.7135C12.5528 12.6463 12.6979 12.4608 12.5297 11.9587L11.2201 8.61636C11.1278 8.36049 10.8474 8.09822 10.4878 8.09182ZM16.455 8.09182C16.1516 8.09182 15.9075 8.3317 15.9075 8.62276V12.2593C15.9075 12.5536 16.1549 12.7902 16.455 12.7902C16.7552 12.7902 17.0026 12.5504 17.0026 12.2593V11.1015L17.1939 10.916L18.4771 12.5664C18.5826 12.7007 18.741 12.7775 18.9158 12.7775C19.0345 12.7775 19.15 12.7423 19.2457 12.6719C19.3611 12.5856 19.437 12.4608 19.4568 12.3201C19.4766 12.1794 19.4403 12.0386 19.3512 11.9267L18.0021 10.1932L19.2523 8.98417C19.338 8.90102 19.3809 8.78587 19.3743 8.66114C19.3677 8.5364 19.3083 8.41806 19.2127 8.32531C19.1104 8.22616 18.9719 8.16859 18.8366 8.16859C18.7179 8.16859 18.6123 8.21017 18.5332 8.28693L17.0059 9.77098V8.62915C17.0059 8.3349 16.7585 8.09822 16.4583 8.09822L16.455 8.09182ZM13.4434 8.09182C13.1366 8.09182 12.8859 8.3317 12.8859 8.62276V12.2305C12.8859 12.4992 13.1201 12.7167 13.4104 12.7199H15.1686C15.4589 12.7199 15.6931 12.4992 15.6931 12.2305C15.6931 11.9619 15.4556 11.7444 15.1686 11.7444H14.0042V8.62276C14.0042 8.32851 13.7535 8.09182 13.4434 8.09182ZM11.0354 10.9256H9.94028L10.4878 9.41915L11.0354 10.9256Z" fill="#191919"/>
</svg>
