<svg width="393" height="482" viewBox="0 0 393 482" fill="none" xmlns="http://www.w3.org/2000/svg">
<g opacity="0.4" filter="url(#filter0_f_2742_13330)">
<path d="M86.0574 196.446C100.949 212.422 99.651 237.089 83.1647 251.413L141.603 263.118C141.603 263.118 182.626 222.973 226.469 225.28C255.276 226.796 252.776 260.335 252.776 260.335L309.249 271.936C309.249 271.936 311.569 214.213 255.668 205.371C243.255 203.409 231.588 202.997 223.358 203.671C189.929 206.412 141.148 226.905 141.148 226.905L142.594 199.421L86.0574 196.446Z" fill="url(#paint0_linear_2742_13330)"/>
<path d="M305.643 340.476C290.751 324.5 292.049 299.833 308.536 285.508L250.097 273.803C250.097 273.803 209.074 313.949 165.231 311.642C136.424 310.126 138.924 276.587 138.924 276.587L82.4517 264.981C82.4517 264.981 80.1313 322.709 136.032 331.55C148.445 333.513 160.112 333.924 168.342 333.251C201.771 330.51 250.552 310.017 250.552 310.017L249.106 337.501L305.643 340.476Z" fill="url(#paint1_linear_2742_13330)"/>
</g>
<path d="M95.3872 210.75C109.29 224.176 109.29 246.034 95.3872 259.459L147.573 267.085C147.573 267.085 181.958 229.701 220.809 229.701C246.336 229.701 245.687 259.455 245.687 259.455L296.131 267.081C296.131 267.081 295.497 215.964 245.687 210.75C234.625 209.593 224.296 209.772 217.055 210.75C187.641 214.727 145.487 235.105 145.487 235.105V210.75H95.3872Z" fill="url(#paint2_linear_2742_13330)"/>
<path d="M296.131 327.817C282.228 314.392 282.228 292.534 296.131 279.108L243.945 271.482C243.945 271.482 209.56 308.866 170.709 308.866C145.182 308.866 145.831 279.112 145.831 279.112L95.3872 271.482C95.3872 271.482 96.0213 322.604 145.831 327.817C156.893 328.974 167.222 328.795 174.463 327.817C203.877 323.841 246.031 303.463 246.031 303.463V327.817H296.131Z" fill="url(#paint3_linear_2742_13330)"/>
<g opacity="0.5" filter="url(#filter1_f_2742_13330)">
<ellipse cx="183.335" cy="240.895" rx="159.119" ry="166.018" transform="rotate(60 183.335 240.895)" fill="#9B88D9" fill-opacity="0.2"/>
</g>
<path d="M67.92 397.485C67.92 399.485 68.1067 401.179 68.48 402.565C68.88 403.952 69.5067 405.085 70.36 405.965C71.2133 406.819 72.3067 407.445 73.64 407.845C75 408.219 76.64 408.405 78.56 408.405C81.3333 408.405 84 408.232 86.56 407.885C89.1467 407.539 91.44 407.085 93.44 406.525L94.4 409.645C92.08 410.179 89.5333 410.619 86.76 410.965C84.0133 411.285 81.12 411.459 78.08 411.485C75.2 411.512 72.8533 411.179 71.04 410.485C69.2533 409.765 67.8533 408.779 66.84 407.525C65.8533 406.272 65.1733 404.792 64.8 403.085C64.4533 401.352 64.28 399.485 64.28 397.485C64.28 395.485 64.4533 393.632 64.8 391.925C65.1733 390.219 65.8667 388.752 66.88 387.525C67.92 386.299 69.3467 385.339 71.16 384.645C72.9733 383.952 75.3467 383.605 78.28 383.605C79.6667 383.605 81.0667 383.659 82.48 383.765C83.92 383.845 85.32 383.965 86.68 384.125C88.04 384.285 89.3467 384.472 90.6 384.685C91.8533 384.872 93 385.072 94.04 385.285L93.04 388.365C92.0267 388.152 90.9067 387.952 89.68 387.765C88.48 387.552 87.24 387.365 85.96 387.205C84.68 387.045 83.4 386.925 82.12 386.845C80.8667 386.739 79.68 386.685 78.56 386.685C76.5333 386.685 74.84 386.859 73.48 387.205C72.12 387.525 71.0267 388.099 70.2 388.925C69.3733 389.725 68.7867 390.832 68.44 392.245C68.0933 393.632 67.92 395.379 67.92 397.485ZM114.546 389.085C116.573 389.085 118.413 389.312 120.066 389.765C121.72 390.219 123.133 390.885 124.306 391.765C125.506 392.645 126.426 393.739 127.066 395.045C127.733 396.352 128.066 397.859 128.066 399.565V400.805C128.066 402.512 127.733 404.019 127.066 405.325C126.426 406.632 125.506 407.725 124.306 408.605C123.133 409.485 121.72 410.152 120.066 410.605C118.413 411.059 116.573 411.285 114.546 411.285H111.426C109.4 411.285 107.56 411.059 105.906 410.605C104.253 410.152 102.826 409.485 101.626 408.605C100.453 407.725 99.5329 406.632 98.8663 405.325C98.2263 404.019 97.9063 402.512 97.9063 400.805V399.565C97.9063 397.859 98.2263 396.352 98.8663 395.045C99.5329 393.739 100.453 392.645 101.626 391.765C102.826 390.885 104.253 390.219 105.906 389.765C107.56 389.312 109.4 389.085 111.426 389.085H114.546ZM124.506 399.565C124.506 397.192 123.693 395.365 122.066 394.085C120.466 392.779 118 392.125 114.666 392.125H111.306C107.973 392.125 105.493 392.779 103.866 394.085C102.266 395.365 101.466 397.192 101.466 399.565V400.805C101.466 403.179 102.266 405.019 103.866 406.325C105.493 407.605 107.973 408.245 111.306 408.245H114.666C118 408.245 120.466 407.605 122.066 406.325C123.693 405.019 124.506 403.179 124.506 400.805V399.565ZM133.685 387.805H138.565V392.605H133.685V387.805ZM133.685 402.205H138.565V407.005H133.685V402.205ZM149.157 388.045V411.085H145.517V383.845H149.957L171.117 406.885V383.845H174.757V411.085H170.317L149.157 388.045ZM181.133 395.525H202.293V398.725H181.133V395.525ZM212.28 389.285V393.645C212.84 392.979 213.507 392.365 214.28 391.805C215.08 391.245 215.934 390.765 216.84 390.365C217.774 389.965 218.747 389.659 219.76 389.445C220.8 389.205 221.84 389.085 222.88 389.085H224.2C226.147 389.085 227.92 389.312 229.52 389.765C231.147 390.192 232.534 390.832 233.68 391.685C234.854 392.539 235.76 393.605 236.4 394.885C237.067 396.165 237.4 397.659 237.4 399.365V411.085H233.8V399.605C233.8 398.432 233.614 397.379 233.24 396.445C232.894 395.512 232.334 394.725 231.56 394.085C230.787 393.445 229.787 392.965 228.56 392.645C227.36 392.299 225.907 392.125 224.2 392.125H222.88C220.614 392.125 218.574 392.645 216.76 393.685C214.947 394.725 213.454 396.059 212.28 397.685V411.085H208.72V389.285H212.28ZM255.516 392.125C252.182 392.125 249.769 392.739 248.276 393.965C246.809 395.192 246.076 396.992 246.076 399.365V401.005C246.076 403.379 246.809 405.179 248.276 406.405C249.769 407.632 252.182 408.245 255.516 408.245H258.036C259.022 408.245 260.062 408.205 261.156 408.125C262.249 408.045 263.342 407.925 264.436 407.765C265.529 407.605 266.596 407.419 267.636 407.205C268.676 406.965 269.636 406.699 270.516 406.405L271.476 409.405C269.556 409.992 267.436 410.459 265.116 410.805C262.796 411.125 260.436 411.285 258.036 411.285H255.636C253.609 411.285 251.782 411.072 250.156 410.645C248.556 410.219 247.182 409.579 246.036 408.725C244.916 407.845 244.049 406.765 243.436 405.485C242.822 404.205 242.516 402.712 242.516 401.005V399.365C242.516 397.659 242.822 396.165 243.436 394.885C244.049 393.605 244.916 392.539 246.036 391.685C247.182 390.832 248.556 390.192 250.156 389.765C251.782 389.312 253.609 389.085 255.636 389.085H258.876C260.902 389.085 262.676 389.259 264.196 389.605C265.742 389.952 267.036 390.512 268.076 391.285C269.116 392.032 269.889 393.005 270.396 394.205C270.929 395.379 271.196 396.819 271.196 398.525V401.925H248.916L247.876 398.885H267.636V397.565C267.636 395.725 266.862 394.365 265.316 393.485C263.769 392.579 261.716 392.125 259.156 392.125H255.516ZM303.693 389.085L291.213 399.925L304.053 411.085H299.213L288.773 402.045L278.373 411.085H273.533L286.373 399.925L273.893 389.085H278.733L288.773 397.845L298.853 389.085H303.693ZM312.139 394.005H306.139V390.965H312.139V384.005H315.699V390.965H327.059V394.005H315.699V405.525C315.699 406.512 316.099 407.219 316.899 407.645C317.726 408.045 318.819 408.245 320.179 408.245C321.619 408.245 322.966 408.152 324.219 407.965C325.472 407.752 326.766 407.459 328.099 407.085L327.299 410.245C325.966 410.565 324.659 410.805 323.379 410.965C322.126 411.125 320.659 411.205 318.979 411.205C317.619 411.205 316.499 411.072 315.619 410.805C314.739 410.539 314.032 410.139 313.499 409.605C312.992 409.072 312.632 408.405 312.419 407.605C312.232 406.805 312.139 405.859 312.139 404.765V394.005Z" fill="url(#paint4_linear_2742_13330)"/>
<defs>
<filter id="filter0_f_2742_13330" x="42.438" y="156.446" width="306.825" height="224.03" filterUnits="userSpaceOnUse" color-interpolation-filters="sRGB">
<feFlood flood-opacity="0" result="BackgroundImageFix"/>
<feBlend mode="normal" in="SourceGraphic" in2="BackgroundImageFix" result="shape"/>
<feGaussianBlur stdDeviation="20" result="effect1_foregroundBlur_2742_13330"/>
</filter>
<filter id="filter1_f_2742_13330" x="-61.0151" y="0" width="488.701" height="481.79" filterUnits="userSpaceOnUse" color-interpolation-filters="sRGB">
<feFlood flood-opacity="0" result="BackgroundImageFix"/>
<feBlend mode="normal" in="SourceGraphic" in2="BackgroundImageFix" result="shape"/>
<feGaussianBlur stdDeviation="40" result="effect1_foregroundBlur_2742_13330"/>
</filter>
<linearGradient id="paint0_linear_2742_13330" x1="84.4084" y1="227.78" x2="310.945" y2="239.701" gradientUnits="userSpaceOnUse">
<stop stop-color="#F2EFFF"/>
<stop offset="1" stop-color="#9576FF"/>
</linearGradient>
<linearGradient id="paint1_linear_2742_13330" x1="80.7551" y1="297.22" x2="307.292" y2="309.142" gradientUnits="userSpaceOnUse">
<stop stop-color="#9576FF"/>
<stop offset="1" stop-color="#F2EFFF"/>
</linearGradient>
<linearGradient id="paint2_linear_2742_13330" x1="95.3872" y1="238.517" x2="296.131" y2="238.517" gradientUnits="userSpaceOnUse">
<stop stop-color="#F2EFFF"/>
<stop offset="1" stop-color="#9576FF"/>
</linearGradient>
<linearGradient id="paint3_linear_2742_13330" x1="95.3872" y1="300.051" x2="296.131" y2="300.051" gradientUnits="userSpaceOnUse">
<stop stop-color="#9576FF"/>
<stop offset="1" stop-color="#F2EFFF"/>
</linearGradient>
<linearGradient id="paint4_linear_2742_13330" x1="62" y1="399.085" x2="329" y2="399.085" gradientUnits="userSpaceOnUse">
<stop stop-color="#F2EFFF"/>
<stop offset="1" stop-color="#9576FF"/>
</linearGradient>
</defs>
</svg>
