<svg width="113" height="18" viewBox="0 0 113 18" fill="none" xmlns="http://www.w3.org/2000/svg">
<path d="M9.90234 11.0957H8.69629V7.14746H6.33496V6.14453H8.69629V2.7168H9.90234V11.0957ZM6.41113 3.56738C6.4069 4.54492 6.18896 5.44206 5.75732 6.25879C5.32992 7.07552 4.71842 7.78646 3.92285 8.3916C3.12728 8.99674 2.18359 9.47493 1.0918 9.82617L0.583984 8.86133C1.43034 8.58626 2.17725 8.23714 2.82471 7.81396C3.47217 7.38656 3.99056 6.89779 4.37988 6.34766C4.76921 5.79329 5.00407 5.20085 5.08447 4.57031H1.16797V3.56738H6.41113ZM10.1943 13.8379H2.57715V10.2324H3.7959V12.8604H10.1943V13.8379ZM20.8254 14.1045H19.6193V7.36328H16.2297V6.37305H19.6193V2.7041H20.8254V14.1045ZM13.1574 10.3594C14.0588 10.3467 14.8924 10.3065 15.6584 10.2388C16.4286 10.1711 17.1988 10.0589 17.9689 9.90234L18.1213 10.8926C17.2665 11.0703 16.4201 11.193 15.5822 11.2607C14.7486 11.3285 13.8387 11.3623 12.8527 11.3623H11.9387V3.96094H13.1574V10.3594ZM31.7992 14.0791H30.5932V2.7168H31.7992V14.0791ZM22.6967 8.91211C24.1693 8.91211 25.477 8.89518 26.6195 8.86133C27.7663 8.82324 28.8751 8.73861 29.9457 8.60742L30.0092 9.49609C29.0316 9.64844 27.9314 9.76058 26.7084 9.83252V13.7109H25.5023V9.8833C24.7576 9.90446 23.6996 9.91504 22.3285 9.91504L22.1762 8.91211H22.6967ZM29.5268 7.64258H26.4164V3.5166H29.4506V4.49414H27.5971V6.67773H29.5268V7.64258ZM25.8197 4.49414H24.0678V6.67139C24.4063 6.65869 24.7237 6.63753 25.0199 6.60791C25.3161 6.57406 25.6251 6.52116 25.9467 6.44922L26.0355 7.41406C25.5827 7.51139 25.1617 7.57487 24.7724 7.60449C24.383 7.62988 23.9239 7.64258 23.3949 7.64258H22.8744V3.5166H25.8197V4.49414ZM42.608 14.0791H41.3893V2.7041H42.608V14.0791ZM39.2184 3.92285C39.2184 5.68327 38.7973 7.24902 37.9552 8.62012C37.1173 9.98698 35.7652 11.1169 33.899 12.0098L33.2643 11.0322C34.7581 10.3213 35.8901 9.45589 36.6603 8.43604C37.4347 7.41618 37.8811 6.2334 37.9996 4.8877H33.8102V3.92285H39.2184Z" fill="#A1A1A1"/>
<path d="M55 9.5H110.5L97 17" stroke="#A1A1A1"/>
</svg>
