<svg width="20" height="20" viewBox="0 0 20 20" fill="none" xmlns="http://www.w3.org/2000/svg">
<mask id="mask0_2339_15092" style="mask-type:alpha" maskUnits="userSpaceOnUse" x="0" y="0" width="20" height="20">
<rect width="20" height="20" fill="#D9D9D9"/>
</mask>
<g mask="url(#mask0_2339_15092)">
<path d="M16.9999 9.5V15.4925C16.9999 15.9071 16.853 16.2619 16.5593 16.5571C16.2655 16.8524 15.9124 17 15.4999 17H4.49991C4.08741 17 3.73429 16.8507 3.44054 16.5521C3.14679 16.2535 2.99991 15.9028 2.99991 15.5V9.47917C2.54158 9.15972 2.25338 8.75 2.13533 8.25C2.01727 7.75 2.02074 7.22222 2.14574 6.66667L3.10408 4C3.17352 3.66667 3.33325 3.41667 3.58325 3.25C3.83325 3.08333 4.13651 3 4.49304 3H15.5068C15.8633 3 16.1631 3.07639 16.4062 3.22917C16.6492 3.38194 16.8124 3.63889 16.8957 4L17.8541 6.66667C17.9791 7.22222 17.9791 7.75 17.8541 8.25C17.7291 8.75 17.4444 9.16667 16.9999 9.5ZM11.8332 8.5C12.1249 8.5 12.3714 8.40278 12.5728 8.20833C12.7742 8.01389 12.861 7.77778 12.8332 7.5L12.3332 4.5H10.8332V7.49208C10.8332 7.77514 10.9305 8.01389 11.1249 8.20833C11.3194 8.40278 11.5555 8.5 11.8332 8.5ZM8.15616 8.5C8.44088 8.5 8.68047 8.40278 8.87491 8.20833C9.06936 8.01389 9.16658 7.77514 9.16658 7.49208V4.5H7.66658L7.16658 7.5C7.1388 7.77778 7.22561 8.01389 7.427 8.20833C7.62838 8.40278 7.87144 8.5 8.15616 8.5ZM4.49991 8.5C4.74991 8.5 4.96866 8.42361 5.15616 8.27083C5.34366 8.11806 5.4513 7.92361 5.47908 7.6875L5.99991 4.5H4.49991L3.56241 7.16667C3.4513 7.48611 3.49297 7.78819 3.68741 8.07292C3.88186 8.35764 4.15269 8.5 4.49991 8.5ZM15.4999 8.5C15.8471 8.5 16.1214 8.35764 16.3228 8.07292C16.5242 7.78819 16.5694 7.48611 16.4582 7.16667L15.4999 4.5H13.9999L14.5207 7.6875C14.5485 7.92361 14.6596 8.11806 14.8541 8.27083C15.0485 8.42361 15.2638 8.5 15.4999 8.5ZM4.49991 15.5H15.4999V10C15.1527 10 14.8228 9.93403 14.5103 9.80208C14.1978 9.67014 13.9166 9.46528 13.6666 9.1875C13.4166 9.46528 13.1363 9.67014 12.8257 9.80208C12.5152 9.93403 12.1844 10 11.8332 10C11.4835 10 11.1565 9.93056 10.8522 9.79167C10.5479 9.65278 10.2638 9.45139 9.99991 9.1875C9.7638 9.45139 9.48602 9.65278 9.16658 9.79167C8.84713 9.93056 8.5138 10 8.16658 10C7.81936 10 7.49297 9.94097 7.18741 9.82292C6.88186 9.70486 6.59713 9.49306 6.33325 9.1875C6.02741 9.48681 5.72526 9.69708 5.42679 9.81833C5.12831 9.93944 4.81936 10 4.49991 10V15.5ZM15.4999 15.5H4.49991H4.51033H4.49554H15.5014H15.4791H15.4999Z" fill="#CBBBFF"/>
</g>
</svg>
