<svg width="14" height="16" viewBox="0 0 14 16" fill="none" xmlns="http://www.w3.org/2000/svg">
<path d="M1.5 16V10H0V6C0 5.5875 0.146875 5.23438 0.440625 4.94063C0.734375 4.64688 1.0875 4.5 1.5 4.5H4.5C4.9125 4.5 5.26563 4.64688 5.55938 4.94063C5.85313 5.23438 6 5.5875 6 6V10H4.5V16H1.5ZM2.99479 3.5C2.51215 3.5 2.10069 3.32812 1.76042 2.98438C1.42014 2.64062 1.25 2.22743 1.25 1.74479C1.25 1.26215 1.42188 0.850694 1.76562 0.510417C2.10938 0.170139 2.52257 0 3.00521 0C3.48785 0 3.89931 0.171875 4.23958 0.515625C4.57986 0.859375 4.75 1.27257 4.75 1.75521C4.75 2.23785 4.57812 2.64931 4.23438 2.98958C3.89062 3.32986 3.47743 3.5 2.99479 3.5ZM9.5 16V12H7L9.1875 5.45833C9.28472 5.18056 9.45278 4.95139 9.69167 4.77083C9.93056 4.59028 10.2 4.5 10.5 4.5C10.8 4.5 11.0694 4.59028 11.3083 4.77083C11.5472 4.95139 11.7153 5.18056 11.8125 5.45833L14 12H11.5V16H9.5ZM10.4948 3.5C10.0122 3.5 9.60069 3.32812 9.26042 2.98438C8.92014 2.64062 8.75 2.22743 8.75 1.74479C8.75 1.26215 8.92188 0.850694 9.26562 0.510417C9.60938 0.170139 10.0226 0 10.5052 0C10.9878 0 11.3993 0.171875 11.7396 0.515625C12.0799 0.859375 12.25 1.27257 12.25 1.75521C12.25 2.23785 12.0781 2.64931 11.7344 2.98958C11.3906 3.32986 10.9774 3.5 10.4948 3.5Z" fill="#CBBBFF"/>
</svg>
