<svg width="6" height="16" viewBox="0 0 6 16" fill="none" xmlns="http://www.w3.org/2000/svg">
<path d="M1.28571 16V10H0V5.6C0 5.16 0.167857 4.78333 0.503571 4.47C0.839286 4.15667 1.24286 4 1.71429 4H4.28571C4.75714 4 5.16071 4.15667 5.49643 4.47C5.83214 4.78333 6 5.16 6 5.6V10H4.71429V16H1.28571ZM3 3.2C2.52857 3.2 2.125 3.04333 1.78929 2.73C1.45357 2.41667 1.28571 2.04 1.28571 1.6C1.28571 1.16 1.45357 0.783333 1.78929 0.47C2.125 0.156667 2.52857 0 3 0C3.47143 0 3.875 0.156667 4.21071 0.47C4.54643 0.783333 4.71429 1.16 4.71429 1.6C4.71429 2.04 4.54643 2.41667 4.21071 2.73C3.875 3.04333 3.47143 3.2 3 3.2Z" fill="#CBBBFF"/>
</svg>
