<svg width="7" height="16" viewBox="0 0 7 16" fill="none" xmlns="http://www.w3.org/2000/svg">
<path d="M2.33333 16V11.2H0L1.98333 5.08C2.08704 4.73333 2.27824 4.46667 2.55694 4.28C2.83565 4.09333 3.15 4 3.5 4C3.85 4 4.16435 4.09333 4.44306 4.28C4.72176 4.46667 4.91296 4.73333 5.01667 5.08L7 11.2H4.66667V16H2.33333ZM3.5 3.2C3.07222 3.2 2.70602 3.04333 2.40139 2.73C2.09676 2.41667 1.94444 2.04 1.94444 1.6C1.94444 1.16 2.09676 0.783333 2.40139 0.47C2.70602 0.156667 3.07222 0 3.5 0C3.92778 0 4.29398 0.156667 4.59861 0.47C4.90324 0.783333 5.05556 1.16 5.05556 1.6C5.05556 2.04 4.90324 2.41667 4.59861 2.73C4.29398 3.04333 3.92778 3.2 3.5 3.2Z" fill="#CBBBFF"/>
</svg>
