<svg width="40" height="40" viewBox="0 0 40 40" fill="none" xmlns="http://www.w3.org/2000/svg">
<circle cx="20" cy="20" r="20" fill="#293A5D"/>
<path d="M20 20.8335C20.6875 20.8335 21.276 20.5887 21.7656 20.0991C22.2552 19.6095 22.5 19.021 22.5 18.3335C22.5 17.646 22.2552 17.0575 21.7656 16.5679C21.276 16.0783 20.6875 15.8335 20 15.8335C19.3125 15.8335 18.724 16.0783 18.2344 16.5679C17.7448 17.0575 17.5 17.646 17.5 18.3335C17.5 19.021 17.7448 19.6095 18.2344 20.0991C18.724 20.5887 19.3125 20.8335 20 20.8335ZM20 33.3335C16.6458 30.4793 14.1406 27.8283 12.4844 25.3804C10.8281 22.9325 10 20.6668 10 18.5835C10 15.4585 11.0052 12.9689 13.0156 11.1147C15.026 9.26058 17.3542 8.3335 20 8.3335C22.6458 8.3335 24.974 9.26058 26.9844 11.1147C28.9948 12.9689 30 15.4585 30 18.5835C30 20.6668 29.1719 22.9325 27.5156 25.3804C25.8594 27.8283 23.3542 30.4793 20 33.3335Z" fill="#FEFEFE"/>
</svg>
