<svg width="24" height="24" viewBox="0 0 24 24" fill="none" xmlns="http://www.w3.org/2000/svg">
<circle cx="12" cy="12" r="12" fill="#9576FF"/>
<path d="M18 19V17.4444C18 16.6193 17.6629 15.828 17.0627 15.2446C16.4626 14.6611 15.6487 14.3333 14.8 14.3333H9.2C8.35131 14.3333 7.53737 14.6611 6.93726 15.2446C6.33714 15.828 6 16.6193 6 17.4444V19" fill="white"/>
<path d="M12 11.2222C13.7673 11.2222 15.2 9.82933 15.2 8.11111C15.2 6.39289 13.7673 5 12 5C10.2327 5 8.8 6.39289 8.8 8.11111C8.8 9.82933 10.2327 11.2222 12 11.2222Z" fill="white"/>
<path d="M18 19V17.4444C18 16.6193 17.6629 15.828 17.0627 15.2446C16.4626 14.6611 15.6487 14.3333 14.8 14.3333H9.2C8.35131 14.3333 7.53737 14.6611 6.93726 15.2446C6.33714 15.828 6 16.6193 6 17.4444V19M15.2 8.11111C15.2 9.82933 13.7673 11.2222 12 11.2222C10.2327 11.2222 8.8 9.82933 8.8 8.11111C8.8 6.39289 10.2327 5 12 5C13.7673 5 15.2 6.39289 15.2 8.11111Z" stroke="#FEFEFE" stroke-width="1.5" stroke-linejoin="round"/>
</svg>
