<svg width="28" height="28" viewBox="0 0 28 28" fill="none" xmlns="http://www.w3.org/2000/svg">
<rect width="28" height="28" rx="14" fill="#7F5AFF"/>
<path d="M12.5 24V18H9.5L12.05 10.35C12.1833 9.91667 12.4292 9.58333 12.7875 9.35C13.1458 9.11667 13.55 9 14 9C14.45 9 14.8542 9.11667 15.2125 9.35C15.5708 9.58333 15.8167 9.91667 15.95 10.35L18.5 18H15.5V24H12.5ZM14 8C13.45 8 12.9792 7.80417 12.5875 7.4125C12.1958 7.02083 12 6.55 12 6C12 5.45 12.1958 4.97917 12.5875 4.5875C12.9792 4.19583 13.45 4 14 4C14.55 4 15.0208 4.19583 15.4125 4.5875C15.8042 4.97917 16 5.45 16 6C16 6.55 15.8042 7.02083 15.4125 7.4125C15.0208 7.80417 14.55 8 14 8Z" fill="#E8E8E8"/>
</svg>
