<svg width="38" height="36" viewBox="0 0 38 36" fill="none" xmlns="http://www.w3.org/2000/svg">
<rect x="0.5" y="0.5" width="37" height="35" rx="17.5" fill="#593FB3"/>
<rect x="0.5" y="0.5" width="37" height="35" rx="17.5" stroke="#7F5AFF"/>
<path d="M13.5 26V20H12V16C12 15.5875 12.1469 15.2344 12.4406 14.9406C12.7344 14.6469 13.0875 14.5 13.5 14.5H16.5C16.9125 14.5 17.2656 14.6469 17.5594 14.9406C17.8531 15.2344 18 15.5875 18 16V20H16.5V26H13.5ZM14.9948 13.5C14.5122 13.5 14.1007 13.3281 13.7604 12.9844C13.4201 12.6406 13.25 12.2274 13.25 11.7448C13.25 11.2622 13.4219 10.8507 13.7656 10.5104C14.1094 10.1701 14.5226 10 15.0052 10C15.4878 10 15.8993 10.1719 16.2396 10.5156C16.5799 10.8594 16.75 11.2726 16.75 11.7552C16.75 12.2378 16.5781 12.6493 16.2344 12.9896C15.8906 13.3299 15.4774 13.5 14.9948 13.5ZM21.5 26V22H19L21.1875 15.4583C21.2847 15.1806 21.4528 14.9514 21.6917 14.7708C21.9306 14.5903 22.2 14.5 22.5 14.5C22.8 14.5 23.0694 14.5903 23.3083 14.7708C23.5472 14.9514 23.7153 15.1806 23.8125 15.4583L26 22H23.5V26H21.5ZM22.4948 13.5C22.0122 13.5 21.6007 13.3281 21.2604 12.9844C20.9201 12.6406 20.75 12.2274 20.75 11.7448C20.75 11.2622 20.9219 10.8507 21.2656 10.5104C21.6094 10.1701 22.0226 10 22.5052 10C22.9878 10 23.3993 10.1719 23.7396 10.5156C24.0799 10.8594 24.25 11.2726 24.25 11.7552C24.25 12.2378 24.0781 12.6493 23.7344 12.9896C23.3906 13.3299 22.9774 13.5 22.4948 13.5Z" fill="#F2EFFF"/>
</svg>
