<svg width="24" height="24" viewBox="0 0 24 24" fill="none" xmlns="http://www.w3.org/2000/svg">
<path d="M9.12397 3.34057C10.225 3.01879 11.3798 2.92368 12.5186 3.06099C13.6574 3.1983 14.7566 3.56519 15.7495 4.13946C16.7434 4.71231 17.6107 5.48082 18.299 6.39848C18.9873 7.31615 19.4823 8.36391 19.7541 9.47837C20.2781 11.6058 19.9576 13.8534 18.86 15.7496C17.7667 17.6485 15.9802 19.05 13.8756 19.6599C12.7746 19.9814 11.6199 20.0763 10.4813 19.9389C9.34261 19.8014 8.24366 19.4344 7.25087 18.8601C6.2569 18.2879 5.38946 17.5197 4.7011 16.6023C4.01275 15.6849 3.51782 14.6373 3.2463 13.5229C2.72184 11.3954 3.04198 9.1474 4.13951 7.25085C5.2329 5.35195 7.01939 3.95047 9.12397 3.34057ZM14.8988 5.61229C13.5243 4.81543 11.9131 4.5278 10.3478 4.79981C10.6129 6.67551 10.2413 8.58594 9.29225 10.2254C8.34687 11.8664 6.87849 13.143 5.12195 13.851C5.66834 15.3432 6.72261 16.5955 8.09988 17.3882C9.47487 18.1846 11.0863 18.4717 12.6518 18.1989C12.3871 16.3234 12.759 14.4133 13.7082 12.7742C14.6532 11.133 16.1212 9.85612 17.8776 9.14777C17.3309 7.65617 16.2766 6.40457 14.8997 5.61229M18.2668 10.8288C16.9698 11.4132 15.89 12.3916 15.181 13.6249C14.4674 14.8555 14.16 16.2796 14.3022 17.695C15.5996 17.1107 16.6797 16.1323 17.3889 14.8989C18.1023 13.668 18.4095 12.2435 18.2668 10.828M8.69819 5.30464C7.40116 5.88902 6.32137 6.86741 5.61232 8.10072C4.89909 9.33138 4.59189 10.7555 4.73441 12.1708C6.03112 11.5862 7.1106 10.6079 7.81943 9.37469C8.53314 8.14389 8.84063 6.72025 8.69819 5.30464Z" fill="white"/>
</svg>
