<svg width="110" height="66" viewBox="0 0 110 66" fill="none" xmlns="http://www.w3.org/2000/svg">
<path d="M0 0.439449C7.61816 7.79617 7.61816 19.7738 0 27.1305L28.596 31.3093C28.596 31.3093 47.4376 10.8239 68.7264 10.8239C82.7145 10.8239 82.3584 27.1284 82.3584 27.1284L110 31.3072C110 31.3072 109.653 3.29622 82.3584 0.439449C76.2974 -0.194463 70.6374 -0.0964571 66.6696 0.439449C50.5518 2.61852 27.4528 13.785 27.4528 13.785V0.439449H0Z" fill="url(#paint0_linear_161_687)"/>
<path d="M110 64.5876C102.382 57.2309 102.382 45.2533 110 37.8966L81.404 33.7178C81.404 33.7178 62.5624 54.2031 41.2736 54.2031C27.2855 54.2031 27.6416 37.8987 27.6416 37.8987L0 33.7178C0 33.7178 0.34745 61.7308 27.6416 64.5876C33.7026 65.2215 39.3626 65.1235 43.3304 64.5876C59.4482 62.4086 82.5472 51.2421 82.5472 51.2421V64.5876H110Z" fill="url(#paint1_linear_161_687)"/>
<defs>
<linearGradient id="paint0_linear_161_687" x1="0" y1="15.6547" x2="110" y2="15.6547" gradientUnits="userSpaceOnUse">
<stop stop-color="#F2EFFF"/>
<stop offset="1" stop-color="#9576FF"/>
</linearGradient>
<linearGradient id="paint1_linear_161_687" x1="0" y1="49.3724" x2="110" y2="49.3724" gradientUnits="userSpaceOnUse">
<stop stop-color="#9576FF"/>
<stop offset="1" stop-color="#F2EFFF"/>
</linearGradient>
</defs>
</svg>
