<svg width="141" height="92" viewBox="0 0 141 92" fill="none" xmlns="http://www.w3.org/2000/svg">
<g opacity="0.3" filter="url(#filter0_f_2941_24708)">
<path d="M10 10.4834C18.38 18.5758 18.38 31.7513 10 39.8437L41.4557 44.4404C41.4557 44.4404 62.1816 21.9064 85.5993 21.9064C100.986 21.9064 100.595 39.8414 100.595 39.8414L131 44.4381C131 44.4381 130.618 13.6259 100.595 10.4834C93.9274 9.78609 87.7014 9.8939 83.3368 10.4834C65.6072 12.8804 40.1982 25.1636 40.1982 25.1636V10.4834H10Z" fill="#F2EFFF"/>
<path d="M10 10.4834C18.38 18.5758 18.38 31.7513 10 39.8437L41.4557 44.4404C41.4557 44.4404 62.1816 21.9064 85.5993 21.9064C100.986 21.9064 100.595 39.8414 100.595 39.8414L131 44.4381C131 44.4381 130.618 13.6259 100.595 10.4834C93.9274 9.78609 87.7014 9.8939 83.3368 10.4834C65.6072 12.8804 40.1982 25.1636 40.1982 25.1636V10.4834H10Z" fill="url(#paint0_linear_2941_24708)" fill-opacity="0.8"/>
<path d="M131 81.0469C122.62 72.9544 122.62 59.779 131 51.6866L99.5448 47.0898C99.5448 47.0898 78.8189 69.6239 55.4011 69.6239C40.0142 69.6239 40.4058 51.6889 40.4058 51.6889L10 47.0898C10 47.0898 10.3822 77.9044 40.4058 81.0469C47.073 81.7442 53.299 81.6364 57.6636 81.0469C75.3933 78.6499 100.802 66.3667 100.802 66.3667V81.0469H131Z" fill="#F2EFFF"/>
<path d="M131 81.0469C122.62 72.9544 122.62 59.779 131 51.6866L99.5448 47.0898C99.5448 47.0898 78.8189 69.6239 55.4011 69.6239C40.0142 69.6239 40.4058 51.6889 40.4058 51.6889L10 47.0898C10 47.0898 10.3822 77.9044 40.4058 81.0469C47.073 81.7442 53.299 81.6364 57.6636 81.0469C75.3933 78.6499 100.802 66.3667 100.802 66.3667V81.0469H131Z" fill="url(#paint1_linear_2941_24708)" fill-opacity="0.8"/>
</g>
<path d="M18 16.4201C25.2827 23.4529 25.2827 34.9032 18 41.936L45.3368 45.9308C45.3368 45.9308 63.3488 26.3474 83.7001 26.3474C97.0723 26.3474 96.7319 41.934 96.7319 41.934L123.156 45.9288C123.156 45.9288 122.824 19.1511 96.7319 16.4201C90.9377 15.8141 85.527 15.9078 81.7339 16.4201C66.3258 18.5032 44.244 29.178 44.244 29.178V16.4201H18Z" fill="#F2EFFF"/>
<path d="M18 16.4201C25.2827 23.4529 25.2827 34.9032 18 41.936L45.3368 45.9308C45.3368 45.9308 63.3488 26.3474 83.7001 26.3474C97.0723 26.3474 96.7319 41.934 96.7319 41.934L123.156 45.9288C123.156 45.9288 122.824 19.1511 96.7319 16.4201C90.9377 15.8141 85.527 15.9078 81.7339 16.4201C66.3258 18.5032 44.244 29.178 44.244 29.178V16.4201H18Z" fill="url(#paint2_linear_2941_24708)" fill-opacity="0.8"/>
<path d="M123.156 77.7441C115.874 70.7113 115.874 59.261 123.156 52.2282L95.8195 48.2334C95.8195 48.2334 77.8076 67.8168 57.4562 67.8168C44.0841 67.8168 44.4244 52.2302 44.4244 52.2302L18 48.2334C18 48.2334 18.3322 75.0131 44.4244 77.7441C50.2186 78.3501 55.6293 78.2564 59.4224 77.7441C74.8305 75.661 96.9124 64.9862 96.9124 64.9862V77.7441H123.156Z" fill="#F2EFFF"/>
<path d="M123.156 77.7441C115.874 70.7113 115.874 59.261 123.156 52.2282L95.8195 48.2334C95.8195 48.2334 77.8076 67.8168 57.4562 67.8168C44.0841 67.8168 44.4244 52.2302 44.4244 52.2302L18 48.2334C18 48.2334 18.3322 75.0131 44.4244 77.7441C50.2186 78.3501 55.6293 78.2564 59.4224 77.7441C74.8305 75.661 96.9124 64.9862 96.9124 64.9862V77.7441H123.156Z" fill="url(#paint3_linear_2941_24708)" fill-opacity="0.8"/>
<defs>
<filter id="filter0_f_2941_24708" x="0" y="0" width="141" height="91.5303" filterUnits="userSpaceOnUse" color-interpolation-filters="sRGB">
<feFlood flood-opacity="0" result="BackgroundImageFix"/>
<feBlend mode="normal" in="SourceGraphic" in2="BackgroundImageFix" result="shape"/>
<feGaussianBlur stdDeviation="5" result="effect1_foregroundBlur_2941_24708"/>
</filter>
<linearGradient id="paint0_linear_2941_24708" x1="10" y1="27.2202" x2="131" y2="27.2202" gradientUnits="userSpaceOnUse">
<stop stop-color="#F2EFFF"/>
<stop offset="1" stop-color="#B59FFF"/>
</linearGradient>
<linearGradient id="paint1_linear_2941_24708" x1="10" y1="64.3101" x2="131" y2="64.3101" gradientUnits="userSpaceOnUse">
<stop stop-color="#B59FFF"/>
<stop offset="1" stop-color="#F2EFFF"/>
</linearGradient>
<linearGradient id="paint2_linear_2941_24708" x1="18" y1="30.9654" x2="123.156" y2="30.9654" gradientUnits="userSpaceOnUse">
<stop stop-color="#F2EFFF"/>
<stop offset="1" stop-color="#B59FFF"/>
</linearGradient>
<linearGradient id="paint3_linear_2941_24708" x1="18" y1="63.1988" x2="123.156" y2="63.1988" gradientUnits="userSpaceOnUse">
<stop stop-color="#B59FFF"/>
<stop offset="1" stop-color="#F2EFFF"/>
</linearGradient>
</defs>
</svg>
