<svg width="24" height="24" viewBox="0 0 24 24" fill="none" xmlns="http://www.w3.org/2000/svg">
<path d="M5.7002 5.70997C6.59825 4.80696 7.76633 4.2249 9.02528 4.05308C10.2842 3.88126 11.5645 4.12917 12.6697 4.75878C13.775 5.38838 14.6441 6.36492 15.1439 7.53859C15.6436 8.71226 15.7463 10.0183 15.4363 11.2562L15.3791 11.4696L18.1988 15.1126C18.4362 15.4193 18.5905 15.7824 18.6467 16.1667C18.703 16.5511 18.6592 16.9435 18.5197 17.3058C18.6026 17.3308 18.7038 17.3441 18.8282 17.3191L18.9261 17.2933C19.1332 17.2291 19.3571 17.2489 19.5499 17.3484C19.7427 17.448 19.889 17.6195 19.9575 17.8261C20.026 18.0328 20.0113 18.2581 19.9165 18.454C19.8216 18.6498 19.6543 18.8006 19.4502 18.874C19.0984 18.9958 18.7225 19.03 18.3547 18.9735C17.9869 18.9171 17.6383 18.7717 17.3388 18.5499C16.9947 18.7028 16.6179 18.7662 16.2431 18.7341C15.8683 18.7021 15.5075 18.5757 15.1942 18.3666L15.0582 18.2691L11.4324 15.4351C10.195 15.7982 8.8725 15.7371 7.67346 15.2614C6.47442 14.7858 5.46705 13.9227 4.81019 12.8082C4.15332 11.6937 3.88433 10.3913 4.04563 9.10618C4.20693 7.82111 4.78934 6.62653 5.70103 5.71081L5.7002 5.70997ZM14.5813 13.1528C14.183 13.7316 13.6837 14.2333 13.1076 14.6335L16.0766 16.9533C16.1884 17.0381 16.3269 17.0795 16.4667 17.0697C16.6065 17.0599 16.738 16.9996 16.837 16.9C16.936 16.8004 16.9959 16.6682 17.0055 16.5278C17.0151 16.3874 16.9738 16.2482 16.8893 16.1359L14.5813 13.1528ZM13.2071 7.45235L13.0388 7.73233C12.3699 8.81501 11.5797 9.81705 10.6835 10.7188C9.78631 11.6189 8.78932 12.4126 7.71211 13.0844L7.43346 13.2536C8.23212 13.8126 9.201 14.0715 10.1705 13.9851C11.14 13.8986 12.0484 13.4724 12.7366 12.7808C13.4248 12.0893 13.8491 11.1766 13.9351 10.2025C14.0211 9.22832 13.7634 8.25482 13.2071 7.45235ZM11.9648 6.27743C11.1707 5.79139 10.2371 5.58754 9.31378 5.6986C8.3905 5.80965 7.53114 6.22918 6.87363 6.88984C6.21611 7.55049 5.79858 8.41396 5.68805 9.34164C5.57752 10.2693 5.7804 11.2074 6.26413 12.0054L6.53283 11.8529C7.61893 11.2115 8.61984 10.4345 9.51172 9.54053C10.3169 8.72947 11.027 7.82838 11.6281 6.85489L11.7243 6.69657L11.8927 6.40742L11.9648 6.27743Z" fill="white"/>
</svg>
