<svg width="24" height="24" viewBox="0 0 24 24" fill="none" xmlns="http://www.w3.org/2000/svg">
<path d="M11.5 13.8182C12.7803 13.8182 13.8182 12.7803 13.8182 11.5C13.8182 10.2197 12.7803 9.18182 11.5 9.18182C10.2197 9.18182 9.18182 10.2197 9.18182 11.5C9.18182 12.7803 10.2197 13.8182 11.5 13.8182Z" stroke="#FEFEFE" stroke-width="1.5" stroke-linecap="round" stroke-linejoin="round"/>
<path d="M17.2182 13.8182C17.1153 14.0512 17.0846 14.3098 17.1301 14.5605C17.1755 14.8111 17.295 15.0424 17.4732 15.2245L17.5195 15.2709C17.6632 15.4144 17.7772 15.5849 17.855 15.7725C17.9328 15.9601 17.9728 16.1612 17.9728 16.3643C17.9728 16.5674 17.9328 16.7685 17.855 16.9561C17.7772 17.1438 17.6632 17.3142 17.5195 17.4577C17.376 17.6014 17.2056 17.7154 17.018 17.7932C16.8303 17.871 16.6292 17.911 16.4261 17.911C16.223 17.911 16.0219 17.871 15.8343 17.7932C15.6467 17.7154 15.4763 17.6014 15.3327 17.4577L15.2864 17.4114C15.1042 17.2332 14.8729 17.1137 14.6223 17.0683C14.3716 17.0228 14.1131 17.0535 13.88 17.1564C13.6515 17.2543 13.4565 17.417 13.3192 17.6243C13.1819 17.8316 13.1083 18.0745 13.1073 18.3232V18.4545C13.1073 18.8644 12.9444 19.2575 12.6546 19.5473C12.3648 19.8372 11.9717 20 11.5618 20C11.1519 20 10.7588 19.8372 10.469 19.5473C10.1792 19.2575 10.0164 18.8644 10.0164 18.4545V18.385C10.0104 18.1292 9.92759 17.8812 9.77876 17.6731C9.62992 17.465 9.42193 17.3065 9.18182 17.2182C8.94875 17.1153 8.69021 17.0846 8.43955 17.1301C8.18888 17.1755 7.95757 17.295 7.77545 17.4732L7.72909 17.5195C7.58556 17.6632 7.41511 17.7772 7.2275 17.855C7.03988 17.9328 6.83878 17.9728 6.63568 17.9728C6.43258 17.9728 6.23148 17.9328 6.04386 17.855C5.85625 17.7772 5.6858 17.6632 5.54227 17.5195C5.39858 17.376 5.28459 17.2056 5.20682 17.018C5.12904 16.8303 5.08901 16.6292 5.08901 16.4261C5.08901 16.223 5.12904 16.0219 5.20682 15.8343C5.28459 15.6467 5.39858 15.4763 5.54227 15.3327L5.58864 15.2864C5.76678 15.1042 5.88628 14.8729 5.93173 14.6223C5.97718 14.3716 5.9465 14.1131 5.84364 13.88C5.74568 13.6515 5.58304 13.4565 5.37572 13.3192C5.16841 13.1819 4.92547 13.1083 4.67682 13.1073H4.54545C4.13557 13.1073 3.74248 12.9444 3.45265 12.6546C3.16282 12.3648 3 11.9717 3 11.5618C3 11.1519 3.16282 10.7588 3.45265 10.469C3.74248 10.1792 4.13557 10.0164 4.54545 10.0164H4.615C4.87077 10.0104 5.11882 9.92759 5.32691 9.77876C5.535 9.62992 5.69351 9.42193 5.78182 9.18182C5.88468 8.94875 5.91536 8.69021 5.86991 8.43955C5.82446 8.18888 5.70496 7.95757 5.52682 7.77545L5.48045 7.72909C5.33676 7.58556 5.22277 7.41511 5.145 7.2275C5.06722 7.03988 5.02719 6.83878 5.02719 6.63568C5.02719 6.43258 5.06722 6.23148 5.145 6.04386C5.22277 5.85625 5.33676 5.6858 5.48045 5.54227C5.62399 5.39858 5.79443 5.28459 5.98205 5.20682C6.16966 5.12904 6.37077 5.08901 6.57386 5.08901C6.77696 5.08901 6.97807 5.12904 7.16568 5.20682C7.3533 5.28459 7.52374 5.39858 7.66727 5.54227L7.71364 5.58864C7.89575 5.76678 8.12706 5.88628 8.37773 5.93173C8.6284 5.97718 8.88693 5.9465 9.12 5.84364H9.18182C9.41037 5.74568 9.60529 5.58304 9.74258 5.37572C9.87988 5.16841 9.95355 4.92547 9.95455 4.67682V4.54545C9.95455 4.13557 10.1174 3.74248 10.4072 3.45265C10.697 3.16282 11.0901 3 11.5 3C11.9099 3 12.303 3.16282 12.5928 3.45265C12.8826 3.74248 13.0455 4.13557 13.0455 4.54545V4.615C13.0464 4.86365 13.1201 5.10659 13.2574 5.31391C13.3947 5.52122 13.5896 5.68386 13.8182 5.78182C14.0512 5.88468 14.3098 5.91536 14.5605 5.86991C14.8111 5.82446 15.0424 5.70496 15.2245 5.52682L15.2709 5.48045C15.4144 5.33676 15.5849 5.22277 15.7725 5.145C15.9601 5.06722 16.1612 5.02719 16.3643 5.02719C16.5674 5.02719 16.7685 5.06722 16.9561 5.145C17.1438 5.22277 17.3142 5.33676 17.4577 5.48045C17.6014 5.62399 17.7154 5.79443 17.7932 5.98205C17.871 6.16966 17.911 6.37077 17.911 6.57386C17.911 6.77696 17.871 6.97807 17.7932 7.16568C17.7154 7.3533 17.6014 7.52374 17.4577 7.66727L17.4114 7.71364C17.2332 7.89575 17.1137 8.12706 17.0683 8.37773C17.0228 8.6284 17.0535 8.88693 17.1564 9.12V9.18182C17.2543 9.41037 17.417 9.60529 17.6243 9.74258C17.8316 9.87988 18.0745 9.95355 18.3232 9.95455H18.4545C18.8644 9.95455 19.2575 10.1174 19.5473 10.4072C19.8372 10.697 20 11.0901 20 11.5C20 11.9099 19.8372 12.303 19.5473 12.5928C19.2575 12.8826 18.8644 13.0455 18.4545 13.0455H18.385C18.1363 13.0464 17.8934 13.1201 17.6861 13.2574C17.4788 13.3947 17.3161 13.5896 17.2182 13.8182Z" stroke="#FEFEFE" stroke-width="1.5" stroke-linecap="round" stroke-linejoin="round"/>
</svg>
