<svg width="24" height="24" viewBox="0 0 24 24" fill="none" xmlns="http://www.w3.org/2000/svg">
<path d="M9.34778 13.208L14.66 16.392M14.6522 7.608L9.34778 10.792M19 6.4C19 7.72548 17.9553 8.8 16.6667 8.8C15.378 8.8 14.3333 7.72548 14.3333 6.4C14.3333 5.07452 15.378 4 16.6667 4C17.9553 4 19 5.07452 19 6.4ZM9.66667 12C9.66667 13.3255 8.622 14.4 7.33333 14.4C6.04467 14.4 5 13.3255 5 12C5 10.6745 6.04467 9.6 7.33333 9.6C8.622 9.6 9.66667 10.6745 9.66667 12ZM19 17.6C19 18.9255 17.9553 20 16.6667 20C15.378 20 14.3333 18.9255 14.3333 17.6C14.3333 16.2745 15.378 15.2 16.6667 15.2C17.9553 15.2 19 16.2745 19 17.6Z" stroke="#FEFEFE" stroke-width="1.5" stroke-linecap="round" stroke-linejoin="round"/>
</svg>
