<svg width="20" height="20" viewBox="0 0 20 20" fill="none" xmlns="http://www.w3.org/2000/svg">
<mask id="mask0_751_2141" style="mask-type:alpha" maskUnits="userSpaceOnUse" x="0" y="0" width="20" height="20">
<rect width="20" height="20" fill="#D9D9D9"/>
</mask>
<g mask="url(#mask0_751_2141)">
<path d="M6.35449 5.33268L8.68783 2.31185C8.85449 2.08963 9.05241 1.92643 9.28158 1.82227C9.51074 1.7181 9.75033 1.66602 10.0003 1.66602C10.2503 1.66602 10.4899 1.7181 10.7191 1.82227C10.9482 1.92643 11.1462 2.08963 11.3128 2.31185L13.6462 5.33268L17.1878 6.52018C17.5489 6.63129 17.8337 6.83615 18.042 7.13477C18.2503 7.43338 18.3545 7.76324 18.3545 8.12435C18.3545 8.29102 18.3302 8.45768 18.2816 8.62435C18.233 8.79102 18.1531 8.95074 18.042 9.10352L15.7503 12.3535L15.8337 15.7702C15.8475 16.2563 15.6878 16.666 15.3545 16.9993C15.0212 17.3327 14.6323 17.4993 14.1878 17.4993C14.16 17.4993 14.0073 17.4785 13.7295 17.4368L10.0003 16.3952L6.27116 17.4368C6.20171 17.4646 6.12533 17.482 6.04199 17.4889C5.95866 17.4959 5.88227 17.4993 5.81283 17.4993C5.36838 17.4993 4.97949 17.3327 4.64616 16.9993C4.31283 16.666 4.1531 16.2563 4.16699 15.7702L4.25033 12.3327L1.97949 9.10352C1.86838 8.95074 1.78852 8.79102 1.73991 8.62435C1.6913 8.45768 1.66699 8.29102 1.66699 8.12435C1.66699 7.77713 1.76769 7.45421 1.96908 7.1556C2.17046 6.85699 2.45171 6.64518 2.81283 6.52018L6.35449 5.33268ZM7.37533 6.77018L3.33366 8.10352L5.91699 11.8327L5.83366 15.8118L10.0003 14.666L14.167 15.8327L14.0837 11.8327L16.667 8.14518L12.6253 6.77018L10.0003 3.33268L7.37533 6.77018Z" fill="#CBBBFF"/>
</g>
</svg>
