<svg width="24" height="24" viewBox="0 0 24 24" fill="none" xmlns="http://www.w3.org/2000/svg">
<path d="M7 12C7 12.2833 7.09583 12.5208 7.2875 12.7125C7.47917 12.9042 7.71667 13 8 13C8.28333 13 8.52083 12.9042 8.7125 12.7125C8.90417 12.5208 9 12.2833 9 12C9 11.7167 8.90417 11.4792 8.7125 11.2875C8.52083 11.0958 8.28333 11 8 11C7.71667 11 7.47917 11.0958 7.2875 11.2875C7.09583 11.4792 7 11.7167 7 12ZM11 12C11 12.2833 11.0958 12.5208 11.2875 12.7125C11.4792 12.9042 11.7167 13 12 13C12.2833 13 12.5208 12.9042 12.7125 12.7125C12.9042 12.5208 13 12.2833 13 12C13 11.7167 12.9042 11.4792 12.7125 11.2875C12.5208 11.0958 12.2833 11 12 11C11.7167 11 11.4792 11.0958 11.2875 11.2875C11.0958 11.4792 11 11.7167 11 12ZM15 12C15 12.2833 15.0958 12.5208 15.2875 12.7125C15.4792 12.9042 15.7167 13 16 13C16.2833 13 16.5208 12.9042 16.7125 12.7125C16.9042 12.5208 17 12.2833 17 12C17 11.7167 16.9042 11.4792 16.7125 11.2875C16.5208 11.0958 16.2833 11 16 11C15.7167 11 15.4792 11.0958 15.2875 11.2875C15.0958 11.4792 15 11.7167 15 12ZM4 20L4 4C4 3.45 4.19583 2.97917 4.5875 2.5875C4.97917 2.19583 5.45 2 6 2H10C10 2.55 10.1958 3.02083 10.5875 3.4125C10.9792 3.80417 11.45 4 12 4C12.55 4 13.0208 3.80417 13.4125 3.4125C13.8042 3.02083 14 2.55 14 2H18C18.55 2 19.0208 2.19583 19.4125 2.5875C19.8042 2.97917 20 3.45 20 4V20C20 20.55 19.8042 21.0208 19.4125 21.4125C19.0208 21.8042 18.55 22 18 22H14C14 21.45 13.8042 20.9792 13.4125 20.5875C13.0208 20.1958 12.55 20 12 20C11.45 20 10.9792 20.1958 10.5875 20.5875C10.1958 20.9792 10 21.45 10 22H6C5.45 22 4.97917 21.8042 4.5875 21.4125C4.19583 21.0208 4 20.55 4 20ZM6 20H8.55C8.91667 19.3833 9.40417 18.8958 10.0125 18.5375C10.6208 18.1792 11.2833 18 12 18C12.7167 18 13.3792 18.1792 13.9875 18.5375C14.5958 18.8958 15.0833 19.3833 15.45 20H18V4H15.45C15.0833 4.61667 14.5958 5.10417 13.9875 5.4625C13.3792 5.82083 12.7167 6 12 6C11.2833 6 10.6208 5.82083 10.0125 5.4625C9.40417 5.10417 8.91667 4.61667 8.55 4H6L6 20Z" fill="#CBBBFF"/>
</svg>
