<svg width="24" height="24" viewBox="0 0 24 24" fill="none" xmlns="http://www.w3.org/2000/svg">
<path d="M15.2727 19V17.3333C15.2727 16.4493 14.9279 15.6014 14.3142 14.9763C13.7004 14.3512 12.868 14 12 14H6.27273C5.40475 14 4.57232 14.3512 3.95856 14.9763C3.3448 15.6014 3 16.4493 3 17.3333V19M18.5455 8.16667V13.1667M21 10.6667H16.0909M12.4091 7.33333C12.4091 9.17428 10.9438 10.6667 9.13636 10.6667C7.32889 10.6667 5.86364 9.17428 5.86364 7.33333C5.86364 5.49238 7.32889 4 9.13636 4C10.9438 4 12.4091 5.49238 12.4091 7.33333Z" stroke="#FEFEFE" stroke-width="2" stroke-linecap="round" stroke-linejoin="round"/>
</svg>
